<svg xmlns="http://www.w3.org/2000/svg" width="20" height="20" fill="none" viewBox="0 0 20 20">
  <path fill="#005699" fill-rule="evenodd" d="m16.25 2.074 1.676 1.676c.26.26.407.614.407.982v9.781a1.39 1.39 0 0 1-1.389 1.389h-5.371a.17.17 0 0 1-.159-.23 5.53 5.53 0 0 0 .253-1.012.17.17 0 0 1 .168-.146h4.762a.347.347 0 0 0 .347-.347V4.876a.347.347 0 0 0-.101-.245l-1.474-1.474a.347.347 0 0 0-.245-.101H7.57a.347.347 0 0 0-.347.347v4.764a.17.17 0 0 1-.19.172c-.31-.034-.777-.054-1.03-.058a.172.172 0 0 1-.169-.173V3.056c0-.768.622-1.39 1.39-1.39h8.044c.369 0 .722.147.983.408Zm-1.39 5.495H10a.694.694 0 1 1 0-1.388h4.86a.694.694 0 1 1 0 1.388ZM13.82 10a.694.694 0 0 0-.695-.694h-2.778a.661.661 0 0 0-.439.168.155.155 0 0 0 .004.238c.302.274.573.58.809.913a.17.17 0 0 0 .139.07h2.265a.695.695 0 0 0 .694-.695Zm-7.64-.694a4.514 4.514 0 1 0 0 9.027 4.514 4.514 0 0 0 0-9.027Zm2.273 3.61-2.014 2.69c-.18.245-.46.398-.763.418H5.6a1.042 1.042 0 0 1-.734-.307l-1.042-1.042a.52.52 0 0 1 .737-.736l.903.903a.173.173 0 0 0 .262-.02l1.897-2.529a.521.521 0 0 1 .833.625l-.003-.001Z" clip-rule="evenodd"/>
</svg>
