<svg width="44" height="44" viewBox="0 0 44 44" fill="none" xmlns="http://www.w3.org/2000/svg">
<path fill-rule="evenodd" clip-rule="evenodd" d="M42.1973 18.8914L38.734 16.1065C38.1868 15.6654 37.9026 14.9755 37.9804 14.2769L38.4608 9.85836C38.5921 8.66991 38.1766 7.48616 37.3313 6.6405C36.486 5.79485 35.3024 5.37881 34.1139 5.50954L29.6897 5.98437C28.9912 6.06177 28.3015 5.77762 27.8601 5.23068L25.0752 1.76934C24.3032 0.87732 23.1817 0.364746 22.002 0.364746C20.8224 0.364746 19.7009 0.87732 18.9289 1.76934L16.144 5.23068C15.7042 5.77968 15.0132 6.06431 14.3144 5.98437L9.89584 5.50954C8.70739 5.37829 7.52364 5.79382 6.67799 6.63911C5.83233 7.4844 5.41629 8.66797 5.54703 9.85647L6.02751 14.275C6.10708 14.9738 5.82252 15.6646 5.27381 16.1046L1.80682 18.8914C0.87536 19.6396 0.333496 20.7698 0.333496 21.9646C0.333496 23.1593 0.87536 24.2896 1.80682 25.0378L5.27004 27.8227C5.81846 28.2629 6.10295 28.9535 6.02374 29.6522L5.54326 34.0708C5.412 35.2592 5.82754 36.443 6.67282 37.2886C7.51811 38.1343 8.70168 38.5503 9.89019 38.4196L14.3106 37.9391C15.0092 37.8614 15.6991 38.1456 16.1402 38.6928L18.9289 42.1617C19.677 43.0931 20.8073 43.635 22.002 43.635C23.1968 43.635 24.3271 43.0931 25.0752 42.1617L27.8601 38.6985C28.3015 38.1515 28.9912 37.8674 29.6897 37.9448L34.1083 38.4252C35.2967 38.5565 36.4805 38.141 37.3261 37.2957C38.1718 36.4504 38.5878 35.2668 38.4571 34.0783L37.9766 29.6579C37.8966 28.959 38.1813 28.2681 38.7303 27.8283L42.1935 25.0434C43.125 24.2952 43.6668 23.165 43.6668 21.9702C43.6668 20.7755 43.125 19.6452 42.1935 18.897L42.1973 18.8914ZM22.7557 27.7435C22.1702 28.5061 21.2863 28.9817 20.3273 29.0501C19.3683 29.1185 18.4259 28.7733 17.738 28.1015L13.133 23.5078C12.6431 23.0347 12.4467 22.3341 12.6191 21.6753C12.7916 21.0165 13.306 20.5021 13.9648 20.3296C14.6236 20.1572 15.3242 20.3536 15.7973 20.8434L20.0387 25.0849L27.4041 15.2661C27.8081 14.7276 28.4686 14.4454 29.1369 14.5259C29.8053 14.6065 30.3799 15.0374 30.6443 15.6565C30.9087 16.2755 30.8228 16.9887 30.4189 17.5272L22.7557 27.7435Z" fill="#01CC78"/>
</svg>
