<svg width="52" height="52" viewBox="0 0 52 52" fill="none" xmlns="http://www.w3.org/2000/svg">
<path fill-rule="evenodd" clip-rule="evenodd" d="M47.1227 40.7051L30.2692 8.69869C29.432 7.12412 27.79 6.13867 26.0009 6.13867C24.2104 6.13867 22.5683 7.12412 21.7311 8.69869L4.87766 40.6881C4.09922 42.1686 4.15957 43.9467 5.03552 45.3686C5.91611 46.7905 7.4699 47.6587 9.14596 47.6664H42.8544C44.5273 47.6618 46.0796 46.8013 46.9648 45.3871C47.8408 43.9621 47.9011 42.184 47.1227 40.7051ZM23.5016 21.087C23.5016 19.7114 24.6205 18.5964 26.0025 18.5964C27.3829 18.5964 28.5034 19.7114 28.5034 21.087V29.3932C28.5034 30.7703 27.3829 31.8853 26.0025 31.8853C24.6205 31.8853 23.5016 30.7703 23.5016 29.3932V21.087ZM26.0025 41.8524C24.1608 41.8524 22.6674 40.3642 22.6674 38.5306C22.6674 36.6938 24.1608 35.2087 26.0025 35.2087C27.8426 35.2087 29.336 36.6938 29.336 38.5306C29.336 39.4112 28.9832 40.2563 28.3579 40.8793C27.7327 41.5039 26.8831 41.8524 25.9994 41.8524H26.0025Z" fill="#FF3E51"/>
</svg>
